<svg width="119" height="24" viewBox="0 0 119 24" fill="none" xmlns="http://www.w3.org/2000/svg">
<path d="M37.9837 18.8901C37.3873 18.9215 36.7974 18.7568 36.3091 18.4226C35.8949 18.1244 35.6586 17.6471 35.6774 17.1467V8.11799C35.6675 8.04054 35.695 7.96298 35.7518 7.90779C35.8086 7.8526 35.8884 7.82594 35.9682 7.83554H37.6528C37.8433 7.83554 37.9336 7.93294 37.9336 8.11799V16.4454C37.9336 16.8155 38.104 17.0006 38.455 17.0006C38.6038 17.0066 38.7526 16.9901 38.8962 16.9519C39.0967 16.9519 39.207 17.0103 39.2171 17.1857L39.3675 18.4031C39.3821 18.4749 39.364 18.5494 39.3179 18.6073C39.2717 18.6651 39.2021 18.7008 39.1268 18.7051C38.7578 18.8234 38.3723 18.8859 37.9837 18.8901Z" fill="#696871"/>
<path fill-rule="evenodd" clip-rule="evenodd" d="M41.4431 17.848C43.1892 19.2492 45.7135 19.2492 47.4596 17.848V17.8383C48.9698 16.3085 48.9698 13.8943 47.4596 12.3646C45.7107 10.971 43.192 10.971 41.4431 12.3646C39.8946 13.883 39.8946 16.3296 41.4431 17.848ZM45.8952 16.5624C45.0814 17.2784 43.8412 17.2784 43.0274 16.5624C42.2923 15.7414 42.2923 14.5199 43.0274 13.6989C43.8412 12.9828 45.0814 12.9828 45.8952 13.6989C46.6304 14.5199 46.6304 15.7414 45.8952 16.5624Z" fill="#696871"/>
<path fill-rule="evenodd" clip-rule="evenodd" d="M58.1489 11.8483C58.1489 11.6633 58.0586 11.5659 57.8681 11.5659L56.2036 11.5756C56.1255 11.5692 56.0485 11.5973 55.9941 11.652C55.9397 11.7068 55.9135 11.7825 55.9228 11.858V12.0139C55.3109 11.5593 54.5571 11.3221 53.787 11.3418C52.7305 11.3052 51.7036 11.6845 50.9392 12.3937C49.4365 13.9038 49.4365 16.299 50.9392 17.809C51.7001 18.5246 52.7285 18.908 53.787 18.8706C54.5354 18.8913 55.2695 18.6685 55.8727 18.2375V18.8512C55.8931 19.3024 55.7229 19.7422 55.4014 20.0686C55.0496 20.3805 54.5834 20.5419 54.1078 20.5166C53.7176 20.5243 53.3316 20.4372 52.9848 20.2634C52.7002 20.1139 52.4823 19.8677 52.3731 19.5719C52.3179 19.4404 52.1883 19.3527 52.0422 19.3479H50.3576C50.0868 19.3479 50.0868 19.4355 50.0868 19.6303C50.2279 20.4284 50.7036 21.1338 51.4004 21.5783C52.2077 22.0866 53.1564 22.3416 54.1179 22.3087C55.1824 22.3543 56.2251 22.0063 57.0358 21.3348C57.7756 20.7055 58.1844 19.7862 58.1489 18.8317V11.8483ZM55.3513 16.5623C55.0037 16.9422 54.5005 17.1527 53.9775 17.137C53.4489 17.1518 52.9399 16.942 52.5837 16.5623C52.224 16.1612 52.0341 15.6427 52.0522 15.1111C52.0302 14.5743 52.2244 14.0502 52.5937 13.6502C52.9491 13.2694 53.4587 13.0594 53.9875 13.0755C54.5057 13.0589 55.0049 13.2657 55.3513 13.6404C56.0369 14.5005 56.0369 15.7022 55.3513 16.5623Z" fill="#696871"/>
<path fill-rule="evenodd" clip-rule="evenodd" d="M60.7859 17.848C62.5348 19.2415 65.0535 19.2415 66.8024 17.848V17.8382C68.3126 16.3085 68.3126 13.8943 66.8024 12.3645C65.0521 10.9748 62.5362 10.9748 60.7859 12.3645C59.2745 13.8976 59.2745 16.315 60.7859 17.848ZM63.8042 17.098C63.2685 17.114 62.7485 16.9211 62.3602 16.5624C61.6379 15.7368 61.6379 14.5244 62.3602 13.6989C62.7485 13.3401 63.2685 13.1472 63.8042 13.1632C64.3364 13.1498 64.8523 13.3425 65.2381 13.6989C65.9604 14.5244 65.9604 15.7368 65.2381 16.5624C64.8523 16.9187 64.3364 17.1114 63.8042 17.098Z" fill="#696871"/>
<path fill-rule="evenodd" clip-rule="evenodd" d="M69.6402 9.91009C70.1884 10.3762 71.0072 10.3762 71.5554 9.91009C71.7983 9.68745 71.936 9.37739 71.936 9.053C71.936 8.7286 71.7983 8.41855 71.5554 8.19591C71.0025 7.74223 70.1932 7.74223 69.6402 8.19591C69.3973 8.41855 69.2596 8.7286 69.2596 9.053C69.2596 9.37739 69.3973 9.68745 69.6402 9.91009ZM70.0908 18.4226C70.5804 18.7541 71.1694 18.9185 71.7654 18.8901C72.1573 18.8866 72.5463 18.8241 72.9186 18.7051C72.9938 18.7008 73.0635 18.6652 73.1096 18.6073C73.1558 18.5494 73.1739 18.475 73.1592 18.4031L73.0088 17.1857C72.9988 17.0104 72.8885 16.9519 72.6879 16.9519C72.5408 16.9895 72.3888 17.0059 72.2367 17.0006C71.8958 17.0006 71.7253 16.8156 71.7253 16.4455V11.8483C71.7253 11.6633 71.6351 11.5659 71.4445 11.5659H69.7599C69.6802 11.5563 69.6003 11.5829 69.5435 11.6381C69.4867 11.6933 69.4593 11.7709 69.4691 11.8483V17.1467C69.4515 17.6447 69.6832 18.1202 70.0908 18.4226Z" fill="#696871"/>
<path fill-rule="evenodd" clip-rule="evenodd" d="M82.2246 12.384C81.4546 11.6708 80.4199 11.2913 79.3568 11.3321C78.4285 11.3125 77.5327 11.6647 76.88 12.3061C76.5357 11.6527 75.8178 11.2674 75.065 11.3321C74.696 11.3255 74.3289 11.385 73.9821 11.5074C73.8368 11.5484 73.7407 11.6823 73.7514 11.8288V12.9781C73.7514 13.134 73.8617 13.2119 74.0823 13.2119H74.4132C74.5763 13.1886 74.7411 13.2417 74.8577 13.3549C74.9742 13.4681 75.0288 13.6281 75.0049 13.7865V21.7731C74.9903 21.8489 75.0151 21.9268 75.0712 21.9813C75.1274 22.0358 75.2076 22.06 75.2856 22.0458H76.9702C77.1607 22.0458 77.261 21.9581 77.261 21.7731V18.2571C77.87 18.6841 78.6058 18.9064 79.3568 18.8901C80.4219 18.9318 81.4582 18.5481 82.2246 17.8285C83.6957 16.2949 83.6957 13.9176 82.2246 12.384ZM79.1762 17.1365C78.6536 17.1365 78.1537 16.9291 77.7924 16.5623C77.4302 16.1474 77.2406 15.6159 77.261 15.0722C77.2376 14.528 77.4275 13.9955 77.7924 13.582C78.1537 13.2153 78.6536 13.0078 79.1762 13.0078C79.6988 13.0078 80.1987 13.2153 80.56 13.582C80.9394 13.9884 81.1377 14.5242 81.1115 15.0722C81.1345 15.6197 80.9366 16.1543 80.56 16.5623C80.1987 16.9291 79.6988 17.1365 79.1762 17.1365Z" fill="#696871"/>
<path d="M88.0605 18.8901C87.1604 18.926 86.2678 18.7169 85.4835 18.2862C84.846 17.9133 84.418 17.2789 84.3203 16.5623C84.3203 16.3675 84.3905 16.2701 84.6111 16.2701H86.0851C86.2281 16.2755 86.3559 16.3583 86.416 16.4844C86.6266 17.0103 87.1781 17.2733 88.0605 17.2733C88.3683 17.287 88.6748 17.2268 88.953 17.098C89.1486 17.0122 89.2796 16.8287 89.2939 16.6207C89.2939 16.3675 89.1335 16.1922 88.8126 16.0753C88.432 15.9523 88.0385 15.8706 87.6394 15.8318C87.1666 15.7798 86.6977 15.6985 86.2355 15.5883C85.7861 15.4895 85.3775 15.2622 85.0623 14.9358C84.6872 14.4872 84.5205 13.9075 84.6023 13.3351C84.684 12.7627 85.0068 12.2489 85.4935 11.9165C86.2163 11.4693 87.0643 11.2514 87.9202 11.2931C88.7488 11.2659 89.5687 11.465 90.2866 11.8678C90.8726 12.1901 91.2778 12.7519 91.3896 13.3969C91.3896 13.5917 91.2994 13.6891 91.1189 13.6891H89.6348C89.507 13.6964 89.3875 13.6268 89.334 13.5138C89.2349 13.2831 89.0482 13.0983 88.8126 12.9976C88.5469 12.8625 88.2501 12.7955 87.9502 12.8028C87.6563 12.7872 87.3631 12.8442 87.0979 12.9684C86.9067 13.04 86.7797 13.2174 86.777 13.4164C86.7902 13.6898 86.9854 13.9229 87.2583 13.991C87.6434 14.132 88.0437 14.23 88.4516 14.2832C88.9206 14.3432 89.3859 14.4277 89.8454 14.5364C90.2948 14.6353 90.7034 14.8625 91.0186 15.189C91.3592 15.5523 91.5361 16.0327 91.51 16.5233C91.5276 17.2082 91.1735 17.8517 90.5774 18.2181C89.8282 18.6852 88.9503 18.9196 88.0605 18.8901Z" fill="#696871"/>
<path d="M102.109 18.4031C102.12 18.473 102.102 18.5444 102.059 18.6012C102.016 18.658 101.95 18.6955 101.878 18.7051C101.512 18.8212 101.13 18.8835 100.745 18.8901C99.9701 18.9681 99.2094 18.6467 98.7397 18.0428C98.0314 18.6343 97.1155 18.9377 96.1827 18.8901C95.3069 18.9293 94.4547 18.6074 93.8363 18.0038C93.2226 17.3718 92.9003 16.5243 92.9438 15.6565V11.8483C92.9438 11.6633 93.0341 11.5659 93.2246 11.5659H94.9092C95.0997 11.5659 95.19 11.6633 95.19 11.8483V15.3643C95.1716 15.8024 95.3258 16.2308 95.6212 16.5623C95.9194 16.8696 96.3399 17.0365 96.7743 17.0201C97.2182 17.039 97.6515 16.8847 97.9776 16.5915C98.2865 16.2824 98.4498 15.8628 98.4288 15.4325V11.8483C98.4288 11.6633 98.5191 11.5659 98.7096 11.5659H100.414C100.605 11.5659 100.695 11.6633 100.695 11.8483V16.4357C100.695 16.8156 100.865 17.0006 101.196 17.0006C101.352 17.0065 101.507 16.99 101.658 16.9519C101.734 16.931 101.817 16.9454 101.881 16.9909C101.946 17.0365 101.985 17.1083 101.989 17.1857L102.109 18.4031Z" fill="#696871"/>
<path d="M118.043 18.4031C118.061 18.4737 118.045 18.5485 118.001 18.607C117.956 18.6654 117.887 18.7014 117.812 18.7051C117.439 18.8228 117.051 18.8852 116.659 18.8901C116.062 18.92 115.473 18.7554 114.984 18.4226C114.555 18.133 114.303 17.6543 114.312 17.1467V14.8579C114.333 14.4211 114.183 13.9929 113.891 13.6599C113.606 13.3516 113.194 13.1837 112.768 13.2021C112.384 13.188 112.014 13.346 111.765 13.6307C111.501 13.957 111.365 14.3649 111.384 14.78V18.3739C111.384 18.559 111.294 18.6564 111.104 18.6564H109.409C109.329 18.666 109.249 18.6393 109.192 18.5841C109.136 18.5289 109.108 18.4514 109.118 18.3739V14.8579C109.14 14.4259 109.001 14.0007 108.727 13.6599C108.48 13.3701 108.112 13.2023 107.724 13.2021C107.311 13.1859 106.909 13.3418 106.621 13.6307C106.334 13.9466 106.187 14.3593 106.21 14.78V18.3739C106.22 18.4514 106.193 18.5289 106.136 18.5841C106.079 18.6393 105.999 18.666 105.919 18.6564H104.285C104.094 18.6564 104.004 18.559 104.004 18.3739V13.7865C104.028 13.6281 103.973 13.468 103.857 13.3548C103.74 13.2416 103.576 13.1886 103.413 13.2119H103.082C102.861 13.2119 102.751 13.1339 102.751 12.9781V11.8288C102.74 11.6823 102.836 11.5484 102.981 11.5074C103.328 11.3849 103.695 11.3255 104.064 11.3321C104.787 11.2723 105.481 11.6207 105.849 12.2282C106.533 11.5986 107.456 11.2739 108.396 11.3321C109.312 11.2887 110.195 11.6721 110.773 12.3645C111.445 11.6551 112.409 11.2761 113.4 11.3321C114.285 11.2919 115.147 11.6133 115.776 12.2184C116.392 12.8492 116.715 13.6976 116.669 14.5657V16.4454C116.669 16.8156 116.839 17.0006 117.16 17.0006C117.316 17.0076 117.471 16.9912 117.621 16.9519C117.829 16.9519 117.939 17.0298 117.952 17.1857L118.043 18.4031Z" fill="#696871"/>
<path fill-rule="evenodd" clip-rule="evenodd" d="M0.461024 10.2997C1.98327 4.35687 7.47753 0.185303 13.7824 0.185303C20.0874 0.185303 25.5816 4.35687 27.1039 10.2997H25.9006C23.8707 10.2707 21.8825 10.8599 20.215 11.9847C20.1188 12.0524 20.0183 12.1142 19.9142 12.1697H19.7738C19.6697 12.1142 19.5692 12.0524 19.473 11.9847C16.0321 9.73726 11.5328 9.73726 8.09189 11.9847C7.99566 12.0524 7.89519 12.1142 7.79106 12.1697H7.65068C7.54656 12.1142 7.44609 12.0524 7.34986 11.9847C5.68243 10.8599 3.69418 10.2707 1.66431 10.2997H0.461024ZM23.7347 16.4065C24.3524 15.9392 25.118 15.6948 25.9006 15.715H27.515V12.5885H25.9006C24.5221 12.5723 23.175 12.9891 22.0601 13.7768C20.7722 14.699 19.0161 14.699 17.7283 13.7768C15.3869 12.1937 12.2783 12.1937 9.93696 13.7768C8.64909 14.699 6.89298 14.699 5.60511 13.7768C4.47643 12.979 3.11009 12.5617 1.71448 12.5885H0.0499268V15.715H1.66434C2.44699 15.6948 3.21256 15.9392 3.83026 16.4065C6.1676 17.9908 9.2742 17.9908 11.6115 16.4065C12.23 15.9407 12.9951 15.6964 13.7775 15.715C14.5604 15.6932 15.3265 15.9378 15.9434 16.4065C18.2848 17.9896 21.3933 17.9896 23.7347 16.4065ZM25.9006 21.3056C25.118 21.2854 24.3524 21.5298 23.7347 21.9971C21.3933 23.5802 18.2848 23.5802 15.9434 21.9971C15.3265 21.5284 14.5604 21.2838 13.7775 21.3056C12.9951 21.287 12.23 21.5313 11.6115 21.9971C9.2742 23.5813 6.1676 23.5813 3.83026 21.9971C3.21256 21.5298 2.44699 21.2854 1.66434 21.3056H0.0499268V18.1791H1.71448C3.11009 18.1523 4.47643 18.5696 5.60511 19.3674C6.89298 20.2896 8.64909 20.2896 9.93696 19.3674C12.2783 17.7842 15.3869 17.7842 17.7283 19.3674C19.0161 20.2896 20.7722 20.2896 22.0601 19.3674C23.175 18.5797 24.5221 18.1629 25.9006 18.1791H27.515V21.3056H25.9006Z" fill="#696871"/>
</svg>
