<svg width="127" height="29" viewBox="0 0 127 29" fill="none" xmlns="http://www.w3.org/2000/svg">
<path fill-rule="evenodd" clip-rule="evenodd" d="M75.1934 6.14061C74.5883 6.40663 74.2104 7.00332 74.2388 7.64799L74.2586 7.65763C74.2638 8.06488 74.4367 8.45315 74.7386 8.73566C75.0406 9.01817 75.4465 9.17137 75.8656 9.16103C76.5298 9.16044 77.1269 8.76765 77.3741 8.16874C77.6213 7.56983 77.4689 6.88507 76.9891 6.43886C76.5093 5.99264 75.7985 5.87458 75.1934 6.14061ZM39.4901 6.85772H36.3059V19.386H39.4901V6.85772ZM45.7196 9.71033C42.7437 9.71033 40.7598 11.5703 40.7598 14.6735C40.7598 17.8441 42.6743 19.6559 45.7196 19.6559C48.765 19.6559 50.6795 17.7766 50.6795 14.6735C50.6795 11.5703 48.6955 9.71033 45.7196 9.71033ZM47.525 14.6735C47.525 12.9677 46.8406 11.9655 45.7494 11.9655C44.6582 11.9655 43.9837 12.9292 43.9837 14.6735C43.9837 16.4178 44.6582 17.3719 45.7494 17.3719C46.8406 17.3719 47.5449 16.4178 47.5449 14.6831L47.525 14.6735ZM55.0243 20.0317H51.9492L51.969 20.0414C52.1476 21.7664 53.9133 22.9904 56.671 23C59.7064 23 61.7697 21.5833 61.7697 19.3186V9.932H58.6152V11.4862C58.0766 10.4387 56.9457 9.79164 55.7286 9.8549C53.2388 9.8549 51.7607 11.7052 51.7607 14.6735C51.7607 17.6417 53.3082 19.3668 55.6393 19.3668C56.8871 19.4556 58.0629 18.7941 58.6053 17.7005V19.415C58.6053 20.3594 57.9704 20.9955 56.7503 20.9955C56.0176 21.0867 55.312 20.6928 55.0243 20.0317ZM58.6153 14.6735C58.6153 13.1604 57.9011 12.2064 56.7703 12.2064C55.6394 12.2064 54.945 13.1701 54.945 14.6735C54.945 16.1769 55.6295 17.0635 56.7703 17.0635C57.911 17.0635 58.6153 16.2443 58.6153 14.6735ZM67.9893 9.71033C65.0134 9.71033 63.0294 11.5703 63.0294 14.6735H63.0493C63.0493 17.8441 64.9539 19.6559 67.9893 19.6559C71.0247 19.6559 72.9491 17.7766 72.9491 14.6735C72.9491 11.5703 70.9652 9.71033 67.9893 9.71033ZM69.7947 14.6735C69.7947 12.9677 69.1003 11.9655 68.019 11.9655C66.9378 11.9655 66.2533 12.9292 66.2533 14.6735C66.2533 16.4178 66.9279 17.3719 68.019 17.3719C69.1102 17.3719 69.8145 16.4178 69.8145 14.6831L69.7947 14.6735ZM74.2387 9.92236H77.4626V19.4246H74.2883L74.2387 9.92236ZM85.2 19.5596C87.6304 19.5596 89.0588 17.767 89.0588 14.6735L89.1183 14.6831C89.1183 11.58 87.68 9.7971 85.1802 9.81638C83.8902 9.75674 82.7002 10.489 82.2043 11.6474H82.1448V9.9513H78.9804V22.4796H82.1646V17.796H82.2241C82.7374 18.9318 83.9256 19.6359 85.2 19.5596ZM85.8151 14.6735C85.8151 13.1701 85.0909 12.1967 83.97 12.1967C82.8491 12.1967 82.1448 13.1604 82.1348 14.6735C82.1249 16.1865 82.8491 17.1406 83.97 17.1406C85.0909 17.1406 85.8746 16.2443 85.8746 14.6831L85.8151 14.6735ZM98.8396 12.8906C98.8198 10.9246 97.1632 9.70068 94.4948 9.70068L94.5543 9.71032C91.8661 9.71032 90.1996 10.915 90.1401 12.8039C90.1401 14.2591 91.1419 15.2324 93.0564 15.6275L94.9015 16.0034C95.6653 16.1576 95.9629 16.2443 95.9629 16.7551C95.9629 17.2659 95.5264 17.555 94.594 17.555C93.6615 17.555 93.0862 17.1406 92.9969 16.4371H89.9119C90.0409 18.3741 91.8165 19.6462 94.5444 19.6462C97.2723 19.6462 99.1074 18.3356 99.1074 16.4082C99.1074 14.9722 98.3139 14.2012 96.3299 13.7965L94.2865 13.3917C93.5524 13.2472 93.1854 13.093 93.1854 12.6015C93.1854 12.11 93.602 11.7823 94.475 11.7823C95.3479 11.7823 95.9332 12.2063 95.9332 12.8906H98.8396ZM109.771 19.4149H106.686V17.632H106.627C106.271 18.857 105.088 19.678 103.78 19.6077C102.81 19.6383 101.873 19.2653 101.204 18.5824C100.535 17.8995 100.198 16.9717 100.278 16.0323V9.93195H103.462V15.3673C103.462 16.4852 104.067 17.0924 105.059 17.0924C105.53 17.0889 105.976 16.8874 106.283 16.54C106.589 16.1925 106.725 15.7331 106.656 15.2806V9.93195H109.831L109.771 19.4149ZM114.404 9.92236H111.309L111.328 19.4246H114.513V13.8158C114.461 13.4213 114.588 13.0244 114.859 12.7271C115.131 12.4298 115.522 12.261 115.931 12.2642C116.804 12.2642 117.29 12.775 117.29 13.7387V19.4246H120.326V13.7965C120.271 13.4065 120.394 13.0126 120.662 12.718C120.931 12.4235 121.319 12.2577 121.724 12.2642C122.627 12.2642 123.093 12.8039 123.093 13.7676V19.4246H126.297V12.9773C126.363 12.1235 126.051 11.2829 125.439 10.6665C124.827 10.0501 123.974 9.71632 123.093 9.74889C121.746 9.68761 120.525 10.5141 120.117 11.7631H119.978C119.743 10.5111 118.566 9.63865 117.26 9.74889C115.97 9.72335 114.825 10.5471 114.473 11.7534H114.404V9.92236Z" fill="#696871"/>
<path fill-rule="evenodd" clip-rule="evenodd" d="M29.52 9.69996C29.5202 5.70094 27.0742 2.11175 23.36 0.661062C19.6459 -0.789626 15.4251 0.195616 12.7305 3.14226H0.52002V29H26.3011V16.9154C28.3476 15.0788 29.5182 12.4549 29.52 9.69996ZM24.5594 9.69996C24.5634 11.6147 23.4169 13.343 21.655 14.0785C19.8931 14.814 17.8631 14.4116 16.5123 13.0591C15.1615 11.7066 14.7562 9.67063 15.4856 7.90129C16.215 6.13195 17.9352 4.97803 19.8435 4.97803C22.4442 4.97802 24.554 7.09052 24.5594 9.69996ZM5.48044 24.0228H21.3404V19.2813C20.8456 19.3636 20.345 19.4062 19.8435 19.4089C14.5015 19.4035 10.1724 15.0598 10.167 9.69997C10.1713 9.16991 10.2204 8.64118 10.3138 8.11945H5.48044V24.0228Z" fill="#696871"/>
</svg>
